<svg width="26" height="38" viewBox="0 0 26 38" fill="none" xmlns="http://www.w3.org/2000/svg">
<path d="M26 13C26 5.3 19.4 -0.799997 11.5 0.100003C5.5 0.800003 0.699999 5.6 0.0999992 11.6C-0.400001 16.2 1.5 20.3 4.7 22.9C6.1 24.1 7 25.8 7 27.7V28H19V27.9C19 26.1 19.8 24.3 21.2 23.1C24.1 20.7 26 17.1 26 13Z" fill="#FBC02D"/>
<path d="M19.6 11.2L16.6 9.2C16.3 9 15.8 9 15.5 9.2L13 10.8L10.6 9.2C10.3 9 9.8 9 9.5 9.2L6.5 11.2C6.3 11.4 6.1 11.6 6.1 11.9C6.1 12.2 6.1 12.5 6.3 12.7L10.1 17.4V28H12.1V17C12.1 16.8 12 16.6 11.9 16.4L8.6 12.3L10.1 11.3L12.5 12.9C12.8 13.1 13.3 13.1 13.6 12.9L16 11.3L17.5 12.3L14.2 16.4C14.1 16.6 14 16.8 14 17V28H16V17.4L19.8 12.7C20 12.5 20.1 12.2 20 11.9C19.9 11.6 19.8 11.3 19.6 11.2Z" fill="#FFF59D"/>
<path d="M13 38C14.6569 38 16 36.6569 16 35C16 33.3431 14.6569 32 13 32C11.3431 32 10 33.3431 10 35C10 36.6569 11.3431 38 13 38Z" fill="#5C6BC0"/>
<path d="M15 36H11C8.8 36 7 34.2 7 32V27H19V32C19 34.2 17.2 36 15 36Z" fill="#9FA8DA"/>
<path d="M19 32L7.4 33.6C7.7 34.3 8.3 35 9 35.4L18.4 34.1C18.8 33.5 19 32.8 19 32Z" fill="#5C6BC0"/>
<path d="M7 29.7V31.7L19 30V28L7 29.7Z" fill="#5C6BC0"/>
</svg>
